{"asset": {"version": "2.0", "generator": "OpenClaw placeholder glTF"}, "scene": 0, "scenes": [{"nodes": [0]}], "nodes": [{"mesh": 0, "name": "GuideByte"}], "meshes": [{"primitives": [{"attributes": {"POSITION": 0}, "indices": 1}], "name": "GuideByteMesh"}], "buffers": [{"uri": "data:application/octet-stream;base64,", "byteLength": 36}], "bufferViews": [{"buffer": 0, "byteOffset": 0, "byteLength": 24, "target": 34962}, {"buffer": 0, "byteOffset": 24, "byteLength": 12, "target": 34963}], "accessors": [{"bufferView": 0, "componentType": 5126, "count": 2, "type": "VEC3", "max": [1, 1, 0], "min": [0, 0, 0]}, {"bufferView": 1, "componentType": 5123, "count": 3, "type": "SCALAR"}]}